<svg xmlns="http://www.w3.org/2000/svg" width="614.1" height="134.487" viewBox="0 0 614.1 134.487">
  <path id="Greetings" d="M26-46.662c-12.936,0-22.836,9.768-22.836,23.562C3.168-9.24,13.068.462,26,.462,38.61.462,47.718-8.91,48.444-21.12v-3.366H24.156v3.762h19.4C42.834-10.23,35.706-3.7,26-3.7,15.774-3.7,7.92-11.154,7.92-23.1S15.774-42.438,26-42.438c7.392,0,13,3.828,15.576,9.768h5.412C43.692-41.448,35.9-46.662,26-46.662ZM61.512-20.13c0-9.042,5.082-11.748,11.088-11.748h1.254V-36.7c-6.2,0-10.362,2.64-12.342,7.062v-6.4h-4.62V0h4.62ZM96.162-32.6C102.828-32.6,108.9-28.38,108.7-20H83.358C83.886-28.38,89.628-32.6,96.162-32.6Zm16.7,21.186h-4.884C106.656-6.6,102.5-3.366,96.36-3.366c-6.732,0-12.606-4.422-13-12.87h29.9a31.592,31.592,0,0,0,.132-3.63c0-9.174-6.468-16.7-17.028-16.7C86-36.564,78.672-29.5,78.672-18.018,78.672-6.6,86.13.528,96.36.528,105.4.528,111.21-4.62,112.86-11.418ZM137.214-32.6c6.666,0,12.738,4.224,12.54,12.606H124.41C124.938-28.38,130.68-32.6,137.214-32.6Zm16.7,21.186h-4.884c-1.32,4.818-5.478,8.052-11.616,8.052-6.732,0-12.606-4.422-13-12.87h29.9a31.592,31.592,0,0,0,.132-3.63c0-9.174-6.468-16.7-17.028-16.7-10.362,0-17.688,7.062-17.688,18.546C119.724-6.6,127.182.528,137.412.528,146.454.528,152.262-4.62,153.912-11.418Zm10.3,1.65c0,7.194,3.366,9.768,9.636,9.768h4.95V-3.96H174.57c-4.158,0-5.676-1.386-5.676-5.808V-32.142h9.9v-3.894h-9.9v-9.042h-4.686v9.042h-5.016v3.894h5.016ZM186.384,0H191V-36.036h-4.62Zm2.31-42.834a3.353,3.353,0,0,0,3.366-3.432,3.3,3.3,0,0,0-3.366-3.366,3.3,3.3,0,0,0-3.366,3.366A3.353,3.353,0,0,0,188.694-42.834ZM228.492,0h4.554V-21.12c0-10.56-6.468-15.576-14.652-15.576-5.346,0-9.966,2.31-12.276,6.8v-6.138H201.5V0h4.62V-19.668c0-8.778,4.686-13,11.418-13,6.6,0,10.956,4.092,10.956,12.078Zm12.672-18.084C241.164-6.8,248.49.528,258.39.528c7.128,0,12.144-3.894,14.256-8.514V.924c0,8.184-5.346,12.738-12.21,12.738-6.6,0-11.154-3.366-12.672-8.25H243.21c1.452,7.524,7.92,12.276,17.226,12.276,9.9,0,16.83-6.666,16.83-16.764v-36.96h-4.62v7.854c-2.046-4.554-7.128-8.382-14.256-8.382C248.49-36.564,241.164-29.37,241.164-18.084Zm31.482.066c0,8.976-6.006,14.52-13.4,14.52-7.59,0-13.4-5.478-13.4-14.586,0-9.174,5.808-14.454,13.4-14.454C266.64-32.538,272.646-26.994,272.646-18.018ZM312.774-9.57c-.2-12.738-21.516-7.524-21.516-17.292,0-3.168,3.036-5.742,7.854-5.742,5.478,0,8.448,3.036,8.712,7.062h4.62c-.4-6.93-5.478-11.022-13.2-11.022-7.59,0-12.672,4.422-12.672,9.768,0,13.53,21.648,8.316,21.648,17.226,0,3.432-2.9,6.2-8.052,6.2-5.874,0-9.306-2.838-9.7-6.8h-4.752c.594,6.6,6.336,10.692,14.52,10.692C307.692.528,312.774-3.762,312.774-9.57ZM340.758,0h4.62V-32.142h8.382v-3.894h-8.382v-2.508c0-5.214,1.98-7.458,8.118-7.458v-3.96c-9.108,0-12.738,3.7-12.738,11.418v2.508h-5.016v3.894h5.016ZM365.64-20.13c0-9.042,5.082-11.748,11.088-11.748h1.254V-36.7c-6.2,0-10.362,2.64-12.342,7.062v-6.4h-4.62V0h4.62Zm53.2,2.112c0-11.484-7.854-18.546-18.018-18.546-10.1,0-18.018,7.062-18.018,18.546C382.8-6.6,390.522.528,400.686.528S418.836-6.6,418.836-18.018Zm-31.35,0c0-9.9,6.4-14.52,13.266-14.52s13.332,4.62,13.332,14.52-6.6,14.52-13.4,14.52C393.822-3.5,387.486-8.118,387.486-18.018ZM479.952,0h4.554V-21.12c0-10.56-6.336-15.576-14.322-15.576-5.742,0-11.022,2.97-13,8.844C455-33.858,449.856-36.7,443.85-36.7c-5.082,0-9.636,2.31-11.946,6.864v-6.2h-4.62V0h4.62V-19.536c0-8.778,4.554-13.134,11.154-13.134,6.4,0,10.626,4.092,10.626,12.078V0h4.554V-19.536c0-8.778,4.62-13.134,11.154-13.134,6.4,0,10.56,4.092,10.56,12.078ZM25.35,76.8,8.925,31.725H1.65L21.375,84H29.25L48.975,31.725h-7.2Zm59.1-29.7c0,5.85-3.375,10.05-11.1,10.05H63.3V37.35H73.35C81.15,37.35,84.45,41.175,84.45,47.1ZM56.475,31.725V84H63.3V62.625h8.25L84,84h8.175L79.05,62.1c8.775-1.95,12.45-8.325,12.45-15,0-8.55-5.85-15.375-18.15-15.375Zm95.55,26.1c0-15.675-11.475-26.7-26.25-26.7-14.7,0-26.25,11.025-26.25,26.7s11.55,26.7,26.25,26.7C140.55,84.525,152.025,73.5,152.025,57.825Zm-45.525,0c0-12.825,8.25-20.775,19.275-20.775S145.05,45,145.05,57.825c0,12.75-8.25,20.775-19.275,20.775S106.5,70.575,106.5,57.825ZM161.025,84h6.825V45.225L185.175,84h4.8l17.25-38.7V84h6.825V32.1h-7.275L187.575,75l-19.2-42.9h-7.35ZM275.55,57.825c0-15.675-11.475-26.7-26.25-26.7-14.7,0-26.25,11.025-26.25,26.7s11.55,26.7,26.25,26.7C264.075,84.525,275.55,73.5,275.55,57.825Zm-45.525,0c0-12.825,8.25-20.775,19.275-20.775S268.575,45,268.575,57.825c0,12.75-8.25,20.775-19.275,20.775S230.025,70.575,230.025,57.825Zm88.8-26.175V73.2l-27.45-41.55H284.55V84h6.825V42.375L318.825,84h6.825V31.65ZM366.975,84H384.75l-20.4-27.225,19.425-25.65h-16.95L350.4,53.925v-22.8H335.7V84h14.7V60.825Zm75.6-26.625c0-15.9-12-27.075-27.075-27.075-15,0-27.15,11.175-27.15,27.075s12.15,27.15,27.15,27.15S442.575,73.275,442.575,57.375Zm-39.225,0c0-8.325,4.5-13.575,12.15-13.575,7.575,0,12.15,5.25,12.15,13.575,0,8.175-4.575,13.5-12.15,13.5C407.85,70.875,403.35,65.55,403.35,57.375Zm80.1-26.25V61.05L463.875,31.125h-14.7V84h14.7V54.45L483.45,84h14.7V31.125Zm57.375,0V61.05L521.25,31.125h-14.7V84h14.7V54.45L540.825,84h14.7V31.125ZM600.225,84H615.75l-19.2-52.875H579.6L560.325,84h15.45l2.85-8.625h18.75ZM593.7,64.125H582.375L588,47.025Z" transform="translate(-1.65 49.962)" fill="#252525"/>
</svg>
