<svg xmlns="http://www.w3.org/2000/svg" width="360" height="310.995" viewBox="0 0 360 310.995">
  <defs>
    <style>
      .cls-1 {
        fill: #ff6584;
      }

      .cls-2 {
        fill: #f2f2f2;
      }

      .cls-3 {
        fill: #3f3d56;
      }

      .cls-4 {
        fill: #e6e6e6;
      }

      .cls-5 {
        fill: #ccc;
      }

      .cls-6 {
        fill: #0d6efd;
      }
    </style>
  </defs>
  <g id="Group_9" data-name="Group 9" transform="translate(-489.008 -194)">
    <circle id="Ellipse_5" data-name="Ellipse 5" class="cls-1" cx="25.83" cy="25.83" r="25.83" transform="translate(497.59 325.975)"/>
    <path id="Path_32" data-name="Path 32" class="cls-2" d="M365.229,509.473H365.2a3.434,3.434,0,0,1-3.431-3.431V304.649a3.434,3.434,0,0,1,3.431-3.431h169.51a3.434,3.434,0,0,1,3.431,3.431V461.243a3.434,3.434,0,0,1-3.4,3.43Z" transform="translate(211.088 -11.768)"/>
    <path id="Path_33" data-name="Path 33" class="cls-3" d="M564.473,157.957h-78.7V112.35a3.636,3.636,0,0,1,3.632-3.632H560.84a3.636,3.636,0,0,1,3.632,3.632Zm-77.894-.807h77.086v-44.8a2.828,2.828,0,0,0-2.825-2.825H489.4a2.828,2.828,0,0,0-2.825,2.825Z" transform="translate(137.134 103.04)"/>
    <path id="Path_34" data-name="Path 34" class="cls-4" d="M441.5,87h33.9a3.229,3.229,0,0,1,3.229,3.229V138.66H438.272V90.229A3.229,3.229,0,0,1,441.5,87Z" transform="translate(203.805 142.113)"/>
    <path id="Path_35" data-name="Path 35" class="cls-3" d="M533.319,83.283H516.772V66.736a2.02,2.02,0,0,1,2.018-2.018H531.3a2.02,2.02,0,0,1,2.018,2.018Zm-15.74-.807h14.933V66.736a1.212,1.212,0,0,0-1.211-1.211H518.79a1.212,1.212,0,0,0-1.211,1.211Z" transform="translate(118.645 129.282)"/>
    <path id="Path_36" data-name="Path 36" class="cls-3" d="M852.689,540.7c-.161,0-.318,0-.478,0a40.974,40.974,0,0,1-27-10.553q-.411-.374-.816-.758l-.125-.119v-77.35l.039-.082c.267-.566.538-1.125.809-1.683,8.395-17.044,18.186-26.429,27.569-26.429,13.532,0,24.027,18.563,29.079,29.628,7.024,15.387,11.93,34.453,11.93,46.365a41,41,0,0,1-40.541,40.981C853.007,540.7,852.846,540.7,852.689,540.7Zm-27.61-11.781c.224.211.449.42.675.625a40.17,40.17,0,0,0,26.471,10.344c.163,0,.318,0,.474,0s.3,0,.443,0a40.322,40.322,0,0,0,39.748-40.174c0-11.809-4.876-30.737-11.857-46.03-4.971-10.889-15.264-29.156-28.345-29.156-9.06,0-18.594,9.225-26.844,25.976-.256.527-.512,1.056-.766,1.591Z" transform="translate(-64.749 -84.828)"/>
    <path id="Path_37" data-name="Path 37" class="cls-5" d="M893.991,693.357a.464.464,0,0,1-.464-.464V598.1a.464.464,0,0,1,.929,0v94.792A.464.464,0,0,1,893.991,693.357Z" transform="translate(-106.053 -188.554)"/>
    <path id="Path_38" data-name="Path 38" class="cls-5" d="M296.991,693.357a.464.464,0,0,1-.464-.464V598.1a.464.464,0,1,1,.929,0v94.792a.464.464,0,0,1-.464.464Z" transform="translate(250.001 -188.554)"/>
    <path id="Path_39" data-name="Path 39" class="cls-5" d="M859.481,601.5a.463.463,0,0,1-.351-.16l-23.354-26.932a.464.464,0,0,1,.7-.609l23.353,26.932a.464.464,0,0,1-.351.769Z" transform="translate(-71.543 -174.24)"/>
    <path id="Path_40" data-name="Path 40" class="cls-5" d="M893.991,660.2a.464.464,0,0,1-.328-.793l13.27-13.27a.464.464,0,1,1,.657.657l-13.27,13.27a.462.462,0,0,1-.328.136Z" transform="translate(-106.053 -217.398)"/>
    <path id="Path_41" data-name="Path 41" class="cls-3" d="M949.828,809.039H915.119v-.4a17.356,17.356,0,0,1,34.711,0Zm-33.9-.807h33.089a16.549,16.549,0,0,0-33.087,0Z" transform="translate(-118.931 -304.043)"/>
    <path id="Path_42" data-name="Path 42" class="cls-3" d="M949.319,809.875a.458.458,0,0,0-.458.458V815.2l-4.741-4.069a.458.458,0,1,0-.6.7l5.338,4.582v2.859a.458.458,0,0,0,.916,0v-8.934a.458.458,0,0,0-.458-.458Z" transform="translate(-135.776 -315.134)"/>
    <path id="Path_43" data-name="Path 43" class="cls-3" d="M228.83,809.039H194.119v-.4a17.356,17.356,0,1,1,34.711,0Zm-33.9-.807h33.087a16.548,16.548,0,0,0-33.087,0Z" transform="translate(311.077 -304.043)"/>
    <path id="Path_44" data-name="Path 44" class="cls-3" d="M228.319,809.875a.458.458,0,0,0-.458.458V815.2l-4.741-4.069a.458.458,0,1,0-.6.7l5.338,4.582v2.859a.458.458,0,0,0,.916,0v-8.934a.458.458,0,0,0-.458-.458Z" transform="translate(294.232 -315.134)"/>
    <path id="Path_45" data-name="Path 45" class="cls-3" d="M238.075,540.7c-.161,0-.317,0-.478,0a41,41,0,0,1-40.535-40.981c0-11.913,4.906-30.979,11.931-46.365,5.052-11.065,15.548-29.628,29.082-29.628,5.575,0,11.189,3.178,16.685,9.444.273.309.546.627.815.953l.092.112V536.735l-.228.11c-.272.132-.547.255-.823.374a40.606,40.606,0,0,1-16.074,3.472C238.393,540.7,238.232,540.7,238.075,540.7Zm0-116.171c-13.083,0-23.377,18.267-28.348,29.156-6.982,15.292-11.858,34.22-11.858,46.03a40.325,40.325,0,0,0,39.742,40.174c.163,0,.316.005.474,0s.3,0,.443,0a39.817,39.817,0,0,0,15.765-3.4c.19-.083.38-.166.567-.253V434.519c-.234-.281-.47-.555-.706-.823C248.817,427.61,243.408,424.525,238.075,424.525Z" transform="translate(309.322 -84.828)"/>
    <path id="Path_46" data-name="Path 46" class="cls-5" d="M263.481,601.5a.463.463,0,0,1-.351-.16l-23.354-26.932a.464.464,0,0,1,.7-.609l23.353,26.932a.464.464,0,0,1-.351.769Z" transform="translate(283.915 -174.24)"/>
    <path id="Path_47" data-name="Path 47" class="cls-5" d="M297.991,660.2a.464.464,0,0,1-.328-.793l13.27-13.27a.464.464,0,1,1,.657.657l-13.27,13.27a.463.463,0,0,1-.329.136Z" transform="translate(249.404 -217.398)"/>
    <path id="Path_48" data-name="Path 48" class="cls-3" d="M359.951,232.754l.3.589a1.785,1.785,0,0,1,.2.823v15.942h14.126V234.167a1.785,1.785,0,0,1,.2-.823l.3-.589Zm13.819,1.413V249.3H361.259V234.167a2.534,2.534,0,0,0-.073-.605h12.657a2.532,2.532,0,0,0-.072.605Zm3.939-1.413.3.589a1.785,1.785,0,0,1,.2.823v15.942h14.126V234.167a1.786,1.786,0,0,1,.2-.823l.3-.589Zm13.819,1.413V249.3H379.017V234.167a2.532,2.532,0,0,0-.073-.605H391.6a2.532,2.532,0,0,0-.072.605Zm3.939-1.413.3.589a1.785,1.785,0,0,1,.2.823v15.942h14.126V234.167a1.785,1.785,0,0,1,.2-.823l.3-.589Zm13.819,1.413V249.3H396.775V234.167a2.532,2.532,0,0,0-.073-.605h12.657a2.537,2.537,0,0,0-.072.605Zm3.939-1.413.3.589a1.785,1.785,0,0,1,.2.823v15.942h14.126V234.167a1.785,1.785,0,0,1,.2-.823l.3-.589Zm13.819,1.413V249.3H414.533V234.167a2.535,2.535,0,0,0-.073-.605h12.657a2.532,2.532,0,0,0-.072.605Zm3.939-1.413.3.589a1.786,1.786,0,0,1,.2.823v15.942H445.61V234.167a1.786,1.786,0,0,1,.2-.823l.3-.589Zm13.819,1.413V249.3H432.291V234.167a2.534,2.534,0,0,0-.073-.605h12.657a2.538,2.538,0,0,0-.072.605Zm3.939-1.413.3.589a1.785,1.785,0,0,1,.2.823v15.942h14.126V234.167a1.785,1.785,0,0,1,.2-.823l.3-.589Zm13.819,1.413V249.3H450.049V234.167a2.534,2.534,0,0,0-.073-.605h12.657a2.532,2.532,0,0,0-.072.605Zm3.939-1.413.3.589a1.785,1.785,0,0,1,.2.823v15.942h14.126V234.167a1.786,1.786,0,0,1,.2-.823l.3-.589Zm13.819,1.413V249.3H467.807V234.167a2.532,2.532,0,0,0-.073-.605h12.657a2.535,2.535,0,0,0-.072.605Zm3.939-1.413.3.589a1.784,1.784,0,0,1,.2.823v15.942h14.126V234.167a1.785,1.785,0,0,1,.2-.823l.3-.589Zm13.819,1.413V249.3H485.565V234.167a2.532,2.532,0,0,0-.073-.605H498.15a2.535,2.535,0,0,0-.072.605Zm3.939-1.413.3.589a1.785,1.785,0,0,1,.2.823v15.942h14.126V234.167a1.785,1.785,0,0,1,.2-.823l.3-.589Zm13.819,1.413V249.3H503.324V234.167a2.532,2.532,0,0,0-.073-.605h12.657a2.535,2.535,0,0,0-.072.605Zm-13.819-1.413.3.589a1.785,1.785,0,0,1,.2.823v15.942h14.126V234.167a1.785,1.785,0,0,1,.2-.823l.3-.589Zm13.819,1.413V249.3H503.324V234.167a2.532,2.532,0,0,0-.073-.605h12.657a2.535,2.535,0,0,0-.072.605Zm-31.577-1.413.3.589a1.785,1.785,0,0,1,.2.823v15.942h14.126V234.167a1.785,1.785,0,0,1,.2-.823l.3-.589Zm13.819,1.413V249.3H485.565V234.167a2.532,2.532,0,0,0-.073-.605H498.15a2.535,2.535,0,0,0-.072.605ZM466.5,232.754l.3.589a1.785,1.785,0,0,1,.2.823v15.942h14.126V234.167a1.785,1.785,0,0,1,.2-.823l.3-.589Zm13.819,1.413V249.3H467.807V234.167a2.532,2.532,0,0,0-.073-.605h12.657a2.532,2.532,0,0,0-.072.605Zm-31.577-1.413.3.589a1.786,1.786,0,0,1,.2.823v15.942h14.126V234.167a1.785,1.785,0,0,1,.2-.823l.3-.589Zm13.819,1.413V249.3H450.049V234.167a2.534,2.534,0,0,0-.073-.605h12.657a2.535,2.535,0,0,0-.072.605Zm-31.577-1.413.3.589a1.785,1.785,0,0,1,.2.823v15.942H445.61V234.167a1.785,1.785,0,0,1,.2-.823l.3-.589Zm13.819,1.413V249.3H432.291V234.167a2.532,2.532,0,0,0-.073-.605h12.657a2.534,2.534,0,0,0-.072.605Zm-31.577-1.413.3.589a1.785,1.785,0,0,1,.2.823v15.942h14.126V234.167a1.785,1.785,0,0,1,.2-.823l.3-.589Zm13.819,1.413V249.3H414.533V234.167a2.534,2.534,0,0,0-.073-.605h12.657a2.532,2.532,0,0,0-.072.605Zm-31.577-1.413.3.589a1.785,1.785,0,0,1,.2.823v15.942h14.126V234.167a1.785,1.785,0,0,1,.2-.823l.3-.589Zm13.819,1.413V249.3H396.775V234.167a2.534,2.534,0,0,0-.073-.605h12.657a2.535,2.535,0,0,0-.072.605Zm-31.577-1.413.3.589a1.785,1.785,0,0,1,.2.823v15.942h14.126V234.167a1.785,1.785,0,0,1,.2-.823l.3-.589Zm13.819,1.413V249.3H379.017V234.167a2.534,2.534,0,0,0-.073-.605H391.6a2.532,2.532,0,0,0-.072.605Zm-31.577-1.413.3.589a1.785,1.785,0,0,1,.2.823v15.942h14.126V234.167a1.785,1.785,0,0,1,.2-.823l.3-.589Zm13.819,1.413V249.3H361.258V234.167a2.534,2.534,0,0,0-.073-.605h12.657a2.535,2.535,0,0,0-.072.605Zm128.246-1.413.3.589a1.785,1.785,0,0,1,.2.823v15.942h14.126V234.167a1.785,1.785,0,0,1,.2-.823l.3-.589Zm13.819,1.413V249.3H503.324V234.167a2.532,2.532,0,0,0-.073-.605h12.657a2.532,2.532,0,0,0-.072.605Zm-31.577-1.413.3.589a1.786,1.786,0,0,1,.2.823v15.942h14.126V234.167a1.785,1.785,0,0,1,.2-.823l.3-.589Zm13.819,1.413V249.3H485.566V234.167a2.532,2.532,0,0,0-.073-.605H498.15a2.532,2.532,0,0,0-.072.605ZM466.5,232.754l.3.589a1.785,1.785,0,0,1,.2.823v15.942h14.126V234.167a1.785,1.785,0,0,1,.2-.823l.3-.589Zm13.819,1.413V249.3H467.807V234.167a2.532,2.532,0,0,0-.073-.605h12.657a2.532,2.532,0,0,0-.072.605Zm-31.577-1.413.3.589a1.785,1.785,0,0,1,.2.823v15.942h14.126V234.167a1.785,1.785,0,0,1,.2-.823l.3-.589Zm13.819,1.413V249.3H450.049V234.167a2.534,2.534,0,0,0-.073-.605h12.657a2.532,2.532,0,0,0-.072.605Zm-31.577-1.413.3.589a1.785,1.785,0,0,1,.2.823v15.942H445.61V234.167a1.785,1.785,0,0,1,.2-.823l.3-.589Zm13.819,1.413V249.3H432.291V234.167a2.532,2.532,0,0,0-.073-.605h12.657a2.534,2.534,0,0,0-.072.605Zm-31.577-1.413.3.589a1.785,1.785,0,0,1,.2.823v15.942h14.126V234.167a1.785,1.785,0,0,1,.2-.823l.3-.589Zm13.819,1.413V249.3H414.533V234.167a2.534,2.534,0,0,0-.073-.605h12.657a2.535,2.535,0,0,0-.072.605Zm-31.577-1.413.3.589a1.785,1.785,0,0,1,.2.823v15.942h14.126V234.167a1.786,1.786,0,0,1,.2-.823l.3-.589Zm13.819,1.413V249.3H396.775V234.167a2.532,2.532,0,0,0-.073-.605h12.657a2.534,2.534,0,0,0-.072.605Zm-31.577-1.413.3.589a1.785,1.785,0,0,1,.2.823v15.942h14.126V234.167a1.785,1.785,0,0,1,.2-.823l.3-.589Zm13.819,1.413V249.3H379.017V234.167a2.535,2.535,0,0,0-.073-.605H391.6a2.534,2.534,0,0,0-.072.605Zm-31.577-1.413.3.589a1.785,1.785,0,0,1,.2.823v15.942h14.126V234.167a1.785,1.785,0,0,1,.2-.823l.3-.589Zm13.819,1.413V249.3H361.258V234.167a2.532,2.532,0,0,0-.073-.605h12.657a2.534,2.534,0,0,0-.072.605Zm128.246-1.413.3.589a1.785,1.785,0,0,1,.2.823v15.942h14.126V234.167a1.785,1.785,0,0,1,.2-.823l.3-.589Zm13.819,1.413V249.3H503.324V234.167a2.535,2.535,0,0,0-.073-.605h12.657a2.532,2.532,0,0,0-.072.605Zm-31.577-1.413.3.589a1.785,1.785,0,0,1,.2.823v15.942h14.126V234.167a1.785,1.785,0,0,1,.2-.823l.3-.589Zm13.819,1.413V249.3H485.566V234.167a2.532,2.532,0,0,0-.073-.605H498.15a2.535,2.535,0,0,0-.072.605ZM466.5,232.754l.3.589a1.785,1.785,0,0,1,.2.823v15.942h14.126V234.167a1.785,1.785,0,0,1,.2-.823l.3-.589Zm13.819,1.413V249.3H467.807V234.167a2.535,2.535,0,0,0-.073-.605h12.657a2.535,2.535,0,0,0-.072.605Zm-31.577-1.413.3.589a1.785,1.785,0,0,1,.2.823v15.942h14.126V234.167a1.785,1.785,0,0,1,.2-.823l.3-.589Zm13.819,1.413V249.3H450.049V234.167a2.532,2.532,0,0,0-.073-.605h12.657a2.535,2.535,0,0,0-.072.605Zm-31.577-1.413.3.589a1.785,1.785,0,0,1,.2.823v15.942H445.61V234.167a1.786,1.786,0,0,1,.2-.823l.3-.589Zm13.819,1.413V249.3H432.291V234.167a2.534,2.534,0,0,0-.073-.605h12.657a2.535,2.535,0,0,0-.072.605Zm-31.577-1.413.3.589a1.786,1.786,0,0,1,.2.823v15.942h14.126V234.167a1.786,1.786,0,0,1,.2-.823l.3-.589Zm13.819,1.413V249.3H414.533V234.167a2.531,2.531,0,0,0-.073-.605h12.657a2.534,2.534,0,0,0-.072.605Zm-31.577-1.413.3.589a1.785,1.785,0,0,1,.2.823v15.942h14.126V234.167a1.786,1.786,0,0,1,.2-.823l.3-.589Zm13.819,1.413V249.3H396.775V234.167a2.534,2.534,0,0,0-.073-.605h12.657a2.535,2.535,0,0,0-.072.605Zm-31.577-1.413.3.589a1.785,1.785,0,0,1,.2.823v15.942h14.126V234.167a1.786,1.786,0,0,1,.2-.823l.3-.589Zm13.819,1.413V249.3H379.017V234.167a2.532,2.532,0,0,0-.073-.605H391.6a2.532,2.532,0,0,0-.072.605Zm-31.577-1.413.3.589a1.785,1.785,0,0,1,.2.823v15.942h14.126V234.167a1.785,1.785,0,0,1,.2-.823l.3-.589Zm13.819,1.413V249.3H361.259V234.167a2.534,2.534,0,0,0-.073-.605h12.657a2.535,2.535,0,0,0-.072.605Zm128.246-1.413.3.589a1.785,1.785,0,0,1,.2.823v15.942h14.126V234.167a1.785,1.785,0,0,1,.2-.823l.3-.589Zm13.819,1.413V249.3H503.324V234.167a2.535,2.535,0,0,0-.073-.605h12.657a2.535,2.535,0,0,0-.072.605Zm-31.577-1.413.3.589a1.785,1.785,0,0,1,.2.823v15.942h14.126V234.167a1.785,1.785,0,0,1,.2-.823l.3-.589Zm13.819,1.413V249.3H485.566V234.167a2.532,2.532,0,0,0-.073-.605H498.15a2.535,2.535,0,0,0-.072.605ZM466.5,232.754l.3.589a1.785,1.785,0,0,1,.2.823v15.942h14.126V234.167a1.785,1.785,0,0,1,.2-.823l.3-.589Zm13.819,1.413V249.3H467.808V234.167a2.535,2.535,0,0,0-.073-.605h12.657a2.535,2.535,0,0,0-.072.605Zm-31.577-1.413.3.589a1.785,1.785,0,0,1,.2.823v15.942h14.126V234.167a1.785,1.785,0,0,1,.2-.823l.3-.589Zm13.819,1.413V249.3H450.049V234.167a2.532,2.532,0,0,0-.073-.605h12.657a2.535,2.535,0,0,0-.072.605Zm-31.577-1.413.3.589a1.785,1.785,0,0,1,.2.823v15.942H445.61V234.167a1.785,1.785,0,0,1,.2-.823l.3-.589Zm13.819,1.413V249.3H432.291V234.167a2.532,2.532,0,0,0-.073-.605h12.657a2.535,2.535,0,0,0-.072.605Zm-31.577-1.413.3.589a1.785,1.785,0,0,1,.2.823v15.942h14.126V234.167a1.785,1.785,0,0,1,.2-.823l.3-.589Zm13.819,1.413V249.3H414.533V234.167a2.532,2.532,0,0,0-.073-.605h12.657a2.532,2.532,0,0,0-.072.605Zm-31.577-1.413.3.589a1.785,1.785,0,0,1,.2.823v15.942h14.126V234.167a1.785,1.785,0,0,1,.2-.823l.3-.589Zm13.819,1.413V249.3H396.775V234.167a2.534,2.534,0,0,0-.073-.605h12.657a2.535,2.535,0,0,0-.072.605Zm-31.577-1.413.3.589a1.785,1.785,0,0,1,.2.823v15.942h14.126V234.167a1.785,1.785,0,0,1,.2-.823l.3-.589Zm13.819,1.413V249.3H379.017V234.167a2.532,2.532,0,0,0-.073-.605H391.6a2.532,2.532,0,0,0-.072.605Zm-31.577-1.413.3.589a1.785,1.785,0,0,1,.2.823v15.942h14.126V234.167a1.785,1.785,0,0,1,.2-.823l.3-.589Zm13.819,1.413V249.3H361.259V234.167a2.535,2.535,0,0,0-.073-.605h12.657a2.534,2.534,0,0,0-.072.605Zm128.246-1.413.3.589a1.785,1.785,0,0,1,.2.823v15.942h14.126V234.167a1.785,1.785,0,0,1,.2-.823l.3-.589Zm13.819,1.413V249.3H503.324V234.167a2.532,2.532,0,0,0-.073-.605h12.657a2.538,2.538,0,0,0-.073.605Zm-31.279-.823a1.785,1.785,0,0,1,.2.823v15.942h14.126V234.167a1.785,1.785,0,0,1,.2-.823l.3-.589H484.258Zm13.593.218a2.532,2.532,0,0,0-.073.605V249.3H485.566V234.167a2.532,2.532,0,0,0-.073-.605Zm-31.351-.218a1.785,1.785,0,0,1,.2.823v15.942h14.126V234.167a1.785,1.785,0,0,1,.2-.823l.3-.589H466.5Zm13.593.218a2.532,2.532,0,0,0-.073.605V249.3H467.808V234.167a2.532,2.532,0,0,0-.073-.605Zm-31.351-.218a1.785,1.785,0,0,1,.2.823v15.942h14.126V234.167a1.785,1.785,0,0,1,.2-.823l.3-.589H448.742Zm13.593.218a2.532,2.532,0,0,0-.073.605V249.3H450.049V234.167a2.534,2.534,0,0,0-.073-.605Zm-31.351-.218a1.785,1.785,0,0,1,.2.823v15.942H445.61V234.167a1.785,1.785,0,0,1,.2-.823l.3-.589H430.983Zm13.593.218a2.535,2.535,0,0,0-.073.605V249.3H432.291V234.167a2.532,2.532,0,0,0-.073-.605Zm-31.351-.218a1.786,1.786,0,0,1,.2.823v15.942h14.126V234.167a1.785,1.785,0,0,1,.2-.823l.3-.589H413.225Zm13.593.218a2.534,2.534,0,0,0-.073.605V249.3H414.533V234.167a2.534,2.534,0,0,0-.073-.605Zm-31.351-.218a1.785,1.785,0,0,1,.2.823v15.942h14.126V234.167a1.785,1.785,0,0,1,.2-.823l.3-.589H395.467Zm13.593.218a2.535,2.535,0,0,0-.073.605V249.3H396.775V234.167a2.534,2.534,0,0,0-.073-.605Zm-31.351-.218a1.785,1.785,0,0,1,.2.823v15.942h14.126V234.167a1.786,1.786,0,0,1,.2-.823l.3-.589H377.709Zm13.593.218a2.532,2.532,0,0,0-.073.605V249.3H379.017V234.167a2.534,2.534,0,0,0-.073-.605Zm-31.351-.218a1.785,1.785,0,0,1,.2.823v15.942h14.126V234.167a1.785,1.785,0,0,1,.2-.823l.3-.589H359.951Zm13.593.218a2.535,2.535,0,0,0-.073.605V249.3H361.259V234.167a2.534,2.534,0,0,0-.073-.605Zm128.472-.218a1.785,1.785,0,0,1,.2.823v15.942h14.126V234.167a1.786,1.786,0,0,1,.2-.823l.3-.589H502.016Zm13.593.218a2.532,2.532,0,0,0-.073.605V249.3H503.324V234.167a2.532,2.532,0,0,0-.073-.605Zm-31.351-.218a1.785,1.785,0,0,1,.2.823v15.942h14.126V234.167a1.785,1.785,0,0,1,.2-.823l.3-.589H484.258Zm13.593.218a2.538,2.538,0,0,0-.073.605V249.3H485.566V234.167a2.535,2.535,0,0,0-.073-.605Zm-31.351-.218a1.785,1.785,0,0,1,.2.823v15.942h14.126V234.167a1.786,1.786,0,0,1,.2-.823l.3-.589H466.5Zm13.593.218a2.532,2.532,0,0,0-.073.605V249.3H467.808V234.167a2.532,2.532,0,0,0-.073-.605Zm-31.351-.218a1.785,1.785,0,0,1,.2.823v15.942h14.126V234.167a1.785,1.785,0,0,1,.2-.823l.3-.589H448.742Zm13.593.218a2.538,2.538,0,0,0-.073.605V249.3H450.05V234.167a2.535,2.535,0,0,0-.073-.605Zm-31.351-.218a1.786,1.786,0,0,1,.2.823v15.942H445.61V234.167a1.786,1.786,0,0,1,.2-.823l.3-.589H430.983Zm13.593.218a2.532,2.532,0,0,0-.073.605V249.3H432.291V234.167a2.532,2.532,0,0,0-.073-.605Zm-31.351-.218a1.785,1.785,0,0,1,.2.823v15.942h14.126V234.167a1.785,1.785,0,0,1,.2-.823l.3-.589H413.225Zm13.593.218a2.535,2.535,0,0,0-.073.605V249.3H414.533V234.167a2.535,2.535,0,0,0-.073-.605Zm-31.351-.218a1.785,1.785,0,0,1,.2.823v15.942h14.126V234.167a1.786,1.786,0,0,1,.2-.823l.3-.589H395.467Zm13.593.218a2.532,2.532,0,0,0-.073.605V249.3H396.775V234.167a2.532,2.532,0,0,0-.073-.605Zm-31.351-.218a1.785,1.785,0,0,1,.2.823v15.942h14.126V234.167a1.785,1.785,0,0,1,.2-.823l.3-.589H377.709Zm13.593.218a2.535,2.535,0,0,0-.073.605V249.3H379.017V234.167a2.535,2.535,0,0,0-.073-.605Zm-31.351-.218a1.785,1.785,0,0,1,.2.823v15.942h14.126V234.167a1.785,1.785,0,0,1,.2-.823l.3-.589H359.951Zm13.593.218a2.535,2.535,0,0,0-.073.605V249.3H361.259V234.167a2.534,2.534,0,0,0-.073-.605ZM532.786,252.53h-4.811a4.452,4.452,0,0,0-4.27-3.229h-2.623V234.167a2.523,2.523,0,0,0-.182-.948,2.417,2.417,0,0,0-1.231-4.5H357.425a2.417,2.417,0,0,0-1.231,4.5,2.523,2.523,0,0,0-.182.948V249.3h-2.623a4.452,4.452,0,0,0-4.27,3.229H343.9a3.638,3.638,0,0,0-3.632,3.632v213.1a3.64,3.64,0,0,0,3.632,3.632H532.786a3.638,3.638,0,0,0,3.632-3.632v-213.1a3.638,3.638,0,0,0-3.632-3.632Zm2.825,216.73a2.827,2.827,0,0,1-1.844,2.648,2.713,2.713,0,0,1-.981.178H343.9a2.713,2.713,0,0,1-.981-.178,2.827,2.827,0,0,1-1.844-2.648v-213.1a2.828,2.828,0,0,1,2.825-2.825h5.86l.065-.323a3.645,3.645,0,0,1,3.56-2.906h3.431V234.167a1.814,1.814,0,0,1,.258-.932l.25-.416-.456-.17a1.61,1.61,0,0,1,.553-3.124H519.67a1.61,1.61,0,0,1,.553,3.124l-.456.17.25.416a1.812,1.812,0,0,1,.258.932v15.942h3.431a3.645,3.645,0,0,1,3.56,2.906l.065.323h5.457a2.828,2.828,0,0,1,2.825,2.825ZM359.951,232.754l.3.589a1.785,1.785,0,0,1,.2.823v15.942h14.126V234.167a1.785,1.785,0,0,1,.2-.823l.3-.589Zm13.819,1.413V249.3H361.259V234.167a2.534,2.534,0,0,0-.073-.605h12.657a2.535,2.535,0,0,0-.073.605Zm3.939-1.413.3.589a1.785,1.785,0,0,1,.2.823v15.942h14.126V234.167a1.785,1.785,0,0,1,.2-.823l.3-.589Zm13.819,1.413V249.3H379.017V234.167a2.534,2.534,0,0,0-.073-.605H391.6A2.532,2.532,0,0,0,391.529,234.167Zm3.939-1.413.3.589a1.785,1.785,0,0,1,.2.823v15.942h14.126V234.167a1.785,1.785,0,0,1,.2-.823l.3-.589Zm13.819,1.413V249.3H396.775V234.167a2.534,2.534,0,0,0-.073-.605h12.657a2.537,2.537,0,0,0-.073.605Zm3.939-1.413.3.589a1.785,1.785,0,0,1,.2.823v15.942h14.126V234.167a1.786,1.786,0,0,1,.2-.823l.3-.589Zm13.819,1.413V249.3H414.533V234.167a2.535,2.535,0,0,0-.073-.605h12.657A2.532,2.532,0,0,0,427.045,234.167Zm3.939-1.413.3.589a1.785,1.785,0,0,1,.2.823v15.942H445.61V234.167a1.785,1.785,0,0,1,.2-.823l.3-.589Zm13.819,1.413V249.3H432.292V234.167a2.534,2.534,0,0,0-.073-.605h12.657A2.532,2.532,0,0,0,444.8,234.167Zm3.939-1.413.3.589a1.785,1.785,0,0,1,.2.823v15.942h14.126V234.167a1.786,1.786,0,0,1,.2-.823l.3-.589Zm13.819,1.413V249.3H450.05V234.167a2.534,2.534,0,0,0-.073-.605h12.657a2.535,2.535,0,0,0-.073.605Zm3.939-1.413.3.589a1.785,1.785,0,0,1,.2.823v15.942h14.126V234.167a1.785,1.785,0,0,1,.2-.823l.3-.589Zm13.819,1.413V249.3H467.808V234.167a2.532,2.532,0,0,0-.073-.605h12.657a2.535,2.535,0,0,0-.073.605Zm3.939-1.413.3.589a1.785,1.785,0,0,1,.2.823v15.942h14.126V234.167a1.785,1.785,0,0,1,.2-.823l.3-.589Zm13.819,1.413V249.3H485.566V234.167a2.532,2.532,0,0,0-.073-.605H498.15a2.535,2.535,0,0,0-.073.605Zm3.939-1.413.3.589a1.785,1.785,0,0,1,.2.823v15.942h14.126V234.167a1.785,1.785,0,0,1,.2-.823l.3-.589Zm13.819,1.413V249.3H503.324V234.167a2.532,2.532,0,0,0-.073-.605h12.657a2.535,2.535,0,0,0-.073.605Zm-155.884-1.413.3.589a1.785,1.785,0,0,1,.2.823v15.942h14.126V234.167a1.785,1.785,0,0,1,.2-.823l.3-.589Zm13.819,1.413V249.3H361.259V234.167a2.534,2.534,0,0,0-.073-.605h12.657A2.532,2.532,0,0,0,373.77,234.167Zm3.939-1.413.3.589a1.785,1.785,0,0,1,.2.823v15.942h14.126V234.167a1.785,1.785,0,0,1,.2-.823l.3-.589Zm13.819,1.413V249.3H379.017V234.167a2.535,2.535,0,0,0-.073-.605H391.6a2.534,2.534,0,0,0-.073.605Zm3.939-1.413.3.589a1.785,1.785,0,0,1,.2.823v15.942h14.126V234.167a1.785,1.785,0,0,1,.2-.823l.3-.589Zm13.819,1.413V249.3H396.775V234.167a2.532,2.532,0,0,0-.073-.605h12.657a2.535,2.535,0,0,0-.073.605Zm3.939-1.413.3.589a1.786,1.786,0,0,1,.2.823v15.942h14.126V234.167a1.785,1.785,0,0,1,.2-.823l.3-.589Zm13.819,1.413V249.3H414.533V234.167a2.534,2.534,0,0,0-.073-.605h12.657a2.532,2.532,0,0,0-.073.605Zm3.939-1.413.3.589a1.785,1.785,0,0,1,.2.823v15.942H445.61V234.167a1.786,1.786,0,0,1,.2-.823l.3-.589Zm13.819,1.413V249.3H432.291V234.167a2.534,2.534,0,0,0-.073-.605h12.657a2.531,2.531,0,0,0-.073.605Zm3.939-1.413.3.589a1.785,1.785,0,0,1,.2.823v15.942h14.126V234.167a1.785,1.785,0,0,1,.2-.823l.3-.589Zm13.819,1.413V249.3H450.05V234.167a2.535,2.535,0,0,0-.073-.605h12.657a2.532,2.532,0,0,0-.073.605Zm3.939-1.413.3.589a1.785,1.785,0,0,1,.2.823v15.942h14.126V234.167a1.786,1.786,0,0,1,.2-.823l.3-.589Zm13.819,1.413V249.3H467.808V234.167a2.535,2.535,0,0,0-.073-.605h12.657a2.535,2.535,0,0,0-.073.605Zm3.939-1.413.3.589a1.785,1.785,0,0,1,.2.823v15.942h14.126V234.167a1.785,1.785,0,0,1,.2-.823l.3-.589Zm13.819,1.413V249.3H485.566V234.167a2.529,2.529,0,0,0-.073-.605H498.15a2.535,2.535,0,0,0-.073.605Zm3.939-1.413.3.589a1.785,1.785,0,0,1,.2.823v15.942h14.126V234.167a1.785,1.785,0,0,1,.2-.823l.3-.589Zm13.819,1.413V249.3H503.324V234.167a2.532,2.532,0,0,0-.073-.605h12.657a2.538,2.538,0,0,0-.073.605Zm-155.884-1.413.3.589a1.785,1.785,0,0,1,.2.823v15.942h14.126V234.167a1.785,1.785,0,0,1,.2-.823l.3-.589Zm13.819,1.413V249.3H361.259V234.167a2.532,2.532,0,0,0-.073-.605h12.657a2.534,2.534,0,0,0-.073.605Zm3.939-1.413.3.589a1.785,1.785,0,0,1,.2.823v15.942h14.126V234.167a1.785,1.785,0,0,1,.2-.823l.3-.589Zm13.819,1.413V249.3H379.017V234.167a2.535,2.535,0,0,0-.073-.605H391.6a2.534,2.534,0,0,0-.073.605Zm3.939-1.413.3.589a1.785,1.785,0,0,1,.2.823v15.942h14.126V234.167a1.786,1.786,0,0,1,.2-.823l.3-.589Zm13.819,1.413V249.3H396.775V234.167a2.532,2.532,0,0,0-.073-.605h12.657a2.535,2.535,0,0,0-.073.605Zm3.939-1.413.3.589a1.785,1.785,0,0,1,.2.823v15.942h14.126V234.167a1.785,1.785,0,0,1,.2-.823l.3-.589Zm13.819,1.413V249.3H414.533V234.167a2.532,2.532,0,0,0-.073-.605h12.657a2.534,2.534,0,0,0-.073.605Zm3.939-1.413.3.589a1.786,1.786,0,0,1,.2.823v15.942H445.61V234.167a1.785,1.785,0,0,1,.2-.823l.3-.589Zm13.819,1.413V249.3H432.291V234.167a2.529,2.529,0,0,0-.073-.605h12.657a2.531,2.531,0,0,0-.073.605Zm3.939-1.413.3.589a1.785,1.785,0,0,1,.2.823v15.942h14.126V234.167a1.785,1.785,0,0,1,.2-.823l.3-.589Zm13.819,1.413V249.3H450.049V234.167a2.534,2.534,0,0,0-.073-.605h12.657a2.532,2.532,0,0,0-.073.605Zm3.939-1.413.3.589a1.785,1.785,0,0,1,.2.823v15.942h14.126V234.167a1.785,1.785,0,0,1,.2-.823l.3-.589Zm13.819,1.413V249.3H467.808V234.167a2.535,2.535,0,0,0-.073-.605h12.657a2.535,2.535,0,0,0-.073.605Zm3.939-1.413.3.589a1.785,1.785,0,0,1,.2.823v15.942h14.126V234.167a1.786,1.786,0,0,1,.2-.823l.3-.589Zm13.819,1.413V249.3H485.566V234.167a2.535,2.535,0,0,0-.073-.605H498.15a2.535,2.535,0,0,0-.072.605Zm3.939-1.413.3.589a1.785,1.785,0,0,1,.2.823v15.942h14.126V234.167a1.785,1.785,0,0,1,.2-.823l.3-.589Zm13.819,1.413V249.3H503.324V234.167a2.535,2.535,0,0,0-.073-.605h12.657a2.535,2.535,0,0,0-.072.605Zm-155.884-1.413.3.589a1.785,1.785,0,0,1,.2.823v15.942h14.126V234.167a1.785,1.785,0,0,1,.2-.823l.3-.589Zm13.819,1.413V249.3H361.259V234.167a2.532,2.532,0,0,0-.073-.605h12.657a2.535,2.535,0,0,0-.073.605Zm3.939-1.413.3.589a1.785,1.785,0,0,1,.2.823v15.942h14.126V234.167a1.785,1.785,0,0,1,.2-.823l.3-.589Zm13.819,1.413V249.3H379.017V234.167a2.534,2.534,0,0,0-.073-.605H391.6a2.534,2.534,0,0,0-.072.605Zm3.939-1.413.3.589a1.785,1.785,0,0,1,.2.823v15.942h14.126V234.167a1.785,1.785,0,0,1,.2-.823l.3-.589Zm13.819,1.413V249.3H396.775V234.167a2.534,2.534,0,0,0-.073-.605h12.657a2.534,2.534,0,0,0-.073.605Zm3.939-1.413.3.589a1.786,1.786,0,0,1,.2.823v15.942h14.126V234.167a1.785,1.785,0,0,1,.2-.823l.3-.589Zm13.819,1.413V249.3H414.533V234.167a2.532,2.532,0,0,0-.073-.605h12.657a2.535,2.535,0,0,0-.072.605Zm3.939-1.413.3.589a1.784,1.784,0,0,1,.2.823v15.942H445.61V234.167a1.785,1.785,0,0,1,.2-.823l.3-.589Zm13.819,1.413V249.3H432.291V234.167a2.532,2.532,0,0,0-.073-.605h12.657a2.534,2.534,0,0,0-.072.605Zm3.939-1.413.3.589a1.785,1.785,0,0,1,.2.823v15.942h14.126V234.167a1.785,1.785,0,0,1,.2-.823l.3-.589Zm13.819,1.413V249.3H450.049V234.167a2.532,2.532,0,0,0-.073-.605h12.657a2.535,2.535,0,0,0-.072.605Zm3.939-1.413.3.589a1.785,1.785,0,0,1,.2.823v15.942h14.126V234.167a1.785,1.785,0,0,1,.2-.823l.3-.589Zm13.819,1.413V249.3H467.807V234.167a2.532,2.532,0,0,0-.073-.605h12.657a2.532,2.532,0,0,0-.072.605Zm3.939-1.413.3.589a1.784,1.784,0,0,1,.2.823v15.942h14.126V234.167a1.785,1.785,0,0,1,.2-.823l.3-.589Zm13.819,1.413V249.3H485.566V234.167a2.532,2.532,0,0,0-.073-.605H498.15a2.535,2.535,0,0,0-.072.605Zm3.939-1.413.3.589a1.785,1.785,0,0,1,.2.823v15.942h14.126V234.167a1.785,1.785,0,0,1,.2-.823l.3-.589Zm13.819,1.413V249.3H503.324V234.167a2.535,2.535,0,0,0-.073-.605h12.657a2.532,2.532,0,0,0-.072.605Z" transform="translate(223.911 31.471)"/>
    <path id="Path_49" data-name="Path 49" class="cls-6" d="M460.449,383.3H430.687a2.367,2.367,0,0,1-2.364-2.364V365.082a2.367,2.367,0,0,1,2.364-2.364h29.762a2.367,2.367,0,0,1,2.364,2.364v15.855a2.367,2.367,0,0,1-2.364,2.364Z" transform="translate(171.397 -48.447)"/>
    <path id="Path_50" data-name="Path 50" class="cls-6" d="M572.668,383.3H542.906a2.367,2.367,0,0,1-2.364-2.364V365.082a2.367,2.367,0,0,1,2.364-2.364h29.762a2.367,2.367,0,0,1,2.364,2.364v15.855a2.367,2.367,0,0,1-2.364,2.364Z" transform="translate(104.469 -48.447)"/>
    <path id="Path_51" data-name="Path 51" class="cls-6" d="M684.888,383.3H655.126a2.367,2.367,0,0,1-2.364-2.364V365.082a2.367,2.367,0,0,1,2.364-2.364h29.762a2.367,2.367,0,0,1,2.364,2.364v15.855a2.367,2.367,0,0,1-2.364,2.364Z" transform="translate(37.54 -48.447)"/>
    <path id="Path_52" data-name="Path 52" class="cls-6" d="M460.449,514.3H430.687a2.367,2.367,0,0,1-2.364-2.364V496.082a2.367,2.367,0,0,1,2.364-2.364h29.762a2.367,2.367,0,0,1,2.364,2.364v15.855A2.367,2.367,0,0,1,460.449,514.3Z" transform="translate(171.397 -126.576)"/>
    <path id="Path_53" data-name="Path 53" class="cls-6" d="M572.668,514.3H542.906a2.367,2.367,0,0,1-2.364-2.364V496.082a2.367,2.367,0,0,1,2.364-2.364h29.762a2.367,2.367,0,0,1,2.364,2.364v15.855a2.367,2.367,0,0,1-2.364,2.364Z" transform="translate(104.469 -126.576)"/>
    <path id="Path_54" data-name="Path 54" class="cls-6" d="M684.888,514.3H655.126a2.367,2.367,0,0,1-2.364-2.364V496.082a2.367,2.367,0,0,1,2.364-2.364h29.762a2.367,2.367,0,0,1,2.364,2.364v15.855A2.367,2.367,0,0,1,684.888,514.3Z" transform="translate(37.54 -126.576)"/>
    <path id="Path_55" data-name="Path 55" class="cls-6" d="M460.449,645.3H430.687a2.367,2.367,0,0,1-2.364-2.364V627.082a2.367,2.367,0,0,1,2.364-2.364h29.762a2.367,2.367,0,0,1,2.364,2.364v15.855A2.367,2.367,0,0,1,460.449,645.3Z" transform="translate(171.397 -204.705)"/>
    <path id="Path_56" data-name="Path 56" class="cls-6" d="M572.668,645.3H542.906a2.367,2.367,0,0,1-2.364-2.364V627.082a2.367,2.367,0,0,1,2.364-2.364h29.762a2.367,2.367,0,0,1,2.364,2.364v15.855a2.367,2.367,0,0,1-2.364,2.364Z" transform="translate(104.469 -204.705)"/>
    <path id="Path_57" data-name="Path 57" class="cls-6" d="M684.888,645.3H655.126a2.367,2.367,0,0,1-2.364-2.364V627.082a2.367,2.367,0,0,1,2.364-2.364h29.762a2.367,2.367,0,0,1,2.364,2.364v15.855A2.367,2.367,0,0,1,684.888,645.3Z" transform="translate(37.54 -204.705)"/>
    <path id="Path_58" data-name="Path 58" class="cls-3" d="M440.392,382.33H405.914a3.146,3.146,0,0,1-3.142-3.143V360.82a3.146,3.146,0,0,1,3.142-3.143h34.478a3.146,3.146,0,0,1,3.143,3.143v18.367A3.146,3.146,0,0,1,440.392,382.33Zm-34.478-23.845a2.338,2.338,0,0,0-2.335,2.335v18.367a2.338,2.338,0,0,0,2.335,2.335h34.478a2.338,2.338,0,0,0,2.335-2.335V360.82a2.338,2.338,0,0,0-2.335-2.335Z" transform="translate(186.636 -45.441)"/>
    <path id="Path_59" data-name="Path 59" class="cls-3" d="M570.392,382.33H535.914a3.146,3.146,0,0,1-3.143-3.143V360.82a3.146,3.146,0,0,1,3.143-3.143h34.478a3.146,3.146,0,0,1,3.143,3.143v18.367A3.146,3.146,0,0,1,570.392,382.33Zm-34.478-23.845a2.338,2.338,0,0,0-2.335,2.335v18.367a2.338,2.338,0,0,0,2.335,2.335h34.478a2.338,2.338,0,0,0,2.335-2.335V360.82a2.338,2.338,0,0,0-2.335-2.335Z" transform="translate(109.103 -45.441)"/>
    <path id="Path_60" data-name="Path 60" class="cls-3" d="M700.392,382.33H665.914a3.146,3.146,0,0,1-3.143-3.143V360.82a3.146,3.146,0,0,1,3.143-3.143h34.478a3.146,3.146,0,0,1,3.143,3.143v18.367A3.146,3.146,0,0,1,700.392,382.33Zm-34.478-23.845a2.338,2.338,0,0,0-2.335,2.335v18.367a2.338,2.338,0,0,0,2.335,2.335h34.478a2.338,2.338,0,0,0,2.335-2.335V360.82a2.338,2.338,0,0,0-2.335-2.335Z" transform="translate(31.57 -45.441)"/>
    <path id="Path_61" data-name="Path 61" class="cls-3" d="M440.392,513.33H405.914a3.146,3.146,0,0,1-3.142-3.143V491.82a3.146,3.146,0,0,1,3.142-3.143h34.478a3.146,3.146,0,0,1,3.143,3.143v18.367A3.146,3.146,0,0,1,440.392,513.33Zm-34.478-23.845a2.338,2.338,0,0,0-2.335,2.335v18.367a2.338,2.338,0,0,0,2.335,2.335h34.478a2.338,2.338,0,0,0,2.335-2.335V491.82a2.338,2.338,0,0,0-2.335-2.335Z" transform="translate(186.636 -123.57)"/>
    <path id="Path_62" data-name="Path 62" class="cls-3" d="M570.392,513.33H535.914a3.146,3.146,0,0,1-3.143-3.143V491.82a3.146,3.146,0,0,1,3.143-3.143h34.478a3.146,3.146,0,0,1,3.143,3.143v18.367A3.146,3.146,0,0,1,570.392,513.33Zm-34.478-23.845a2.338,2.338,0,0,0-2.335,2.335v18.367a2.338,2.338,0,0,0,2.335,2.335h34.478a2.338,2.338,0,0,0,2.335-2.335V491.82a2.338,2.338,0,0,0-2.335-2.335Z" transform="translate(109.103 -123.57)"/>
    <path id="Path_63" data-name="Path 63" class="cls-3" d="M700.392,513.33H665.914a3.146,3.146,0,0,1-3.143-3.143V491.82a3.146,3.146,0,0,1,3.143-3.143h34.478a3.146,3.146,0,0,1,3.143,3.143v18.367A3.146,3.146,0,0,1,700.392,513.33Zm-34.478-23.845a2.338,2.338,0,0,0-2.335,2.335v18.367a2.338,2.338,0,0,0,2.335,2.335h34.478a2.338,2.338,0,0,0,2.335-2.335V491.82a2.338,2.338,0,0,0-2.335-2.335Z" transform="translate(31.57 -123.57)"/>
    <path id="Path_64" data-name="Path 64" class="cls-3" d="M440.392,644.33H405.914a3.146,3.146,0,0,1-3.142-3.143V622.82a3.146,3.146,0,0,1,3.142-3.143h34.478a3.146,3.146,0,0,1,3.143,3.143v18.367A3.146,3.146,0,0,1,440.392,644.33Zm-34.478-23.845a2.338,2.338,0,0,0-2.335,2.335v18.367a2.338,2.338,0,0,0,2.335,2.335h34.478a2.338,2.338,0,0,0,2.335-2.335V622.82a2.338,2.338,0,0,0-2.335-2.335Z" transform="translate(186.636 -201.699)"/>
    <path id="Path_65" data-name="Path 65" class="cls-3" d="M570.392,644.33H535.914a3.146,3.146,0,0,1-3.143-3.143V622.82a3.146,3.146,0,0,1,3.143-3.143h34.478a3.146,3.146,0,0,1,3.143,3.143v18.367A3.146,3.146,0,0,1,570.392,644.33Zm-34.478-23.845a2.338,2.338,0,0,0-2.335,2.335v18.367a2.338,2.338,0,0,0,2.335,2.335h34.478a2.338,2.338,0,0,0,2.335-2.335V622.82a2.338,2.338,0,0,0-2.335-2.335Z" transform="translate(109.103 -201.699)"/>
    <path id="Path_66" data-name="Path 66" class="cls-3" d="M700.392,644.33H665.914a3.146,3.146,0,0,1-3.143-3.143V622.82a3.146,3.146,0,0,1,3.143-3.143h34.478a3.146,3.146,0,0,1,3.143,3.143v18.367A3.146,3.146,0,0,1,700.392,644.33Zm-34.478-23.845a2.338,2.338,0,0,0-2.335,2.335v18.367a2.338,2.338,0,0,0,2.335,2.335h34.478a2.338,2.338,0,0,0,2.335-2.335V622.82a2.338,2.338,0,0,0-2.335-2.335Z" transform="translate(31.57 -201.699)"/>
    <path id="Path_67" data-name="Path 67" class="cls-3" d="M454.644,834.025H95.356a.407.407,0,0,1,0-.807H454.644a.407.407,0,0,1,0,.807Z" transform="translate(394.008 -329.056)"/>
    <path id="Path_68" data-name="Path 68" class="cls-3" d="M603.653,733.234a3.474,3.474,0,0,0-3.431-3.515H583.272v41.772h20.381Z" transform="translate(78.984 -267.328)"/>
    <path id="Path_69" data-name="Path 69" class="cls-3" d="M552.961,770.788H531.772V733.052a3.838,3.838,0,0,1,3.834-3.834h17.355Zm-20.381-.807h19.574V730.025H535.606a3.03,3.03,0,0,0-3.027,3.027Z" transform="translate(109.699 -267.03)"/>
    <circle id="Ellipse_6" data-name="Ellipse 6" class="cls-3" cx="1.211" cy="1.211" r="1.211" transform="translate(642.884 483.377)"/>
  </g>
</svg>
