<svg xmlns="http://www.w3.org/2000/svg" width="760.162" height="623.487" viewBox="0 0 760.162 623.487">
  <defs>
    <style>
      .cls-1 {
        fill: #f0f0f0;
      }

      .cls-2 {
        fill: #0d6efd;
      }

      .cls-3 {
        fill: #3f3d56;
      }

      .cls-4 {
        fill: #2f2e41;
      }

      .cls-5 {
        fill: #ffb6b6;
      }

      .cls-6 {
        fill: #e4e4e4;
      }

      .cls-7 {
        fill: #ffb7b7;
      }

      .cls-8 {
        fill: #cacaca;
      }
    </style>
  </defs>
  <g id="undraw_departing_re_mlq3" transform="translate(0 0)">
    <path id="Path_72" data-name="Path 72" class="cls-1" d="M296.653,281.034c-20.336.008-29.071,29.453-48.972,33.637-8.888,1.869-17.957-1.851-27.038-2.012s-19.943,6.433-18.024,15.31l173.126-2.61a79.634,79.634,0,0,1-47.488-22.307C318.874,293.719,309.886,281.028,296.653,281.034Z" transform="translate(-194.774 -136.721)"/>
    <path id="Path_73" data-name="Path 73" class="cls-2" d="M753.256,567.624a106.9,106.9,0,0,1-105.43-89.283l-.036-.215.133-.16A103.222,103.222,0,0,0,664.31,450.7a69.51,69.51,0,0,1-17.1,15.636l-.67.447-.039-.8c-.085-1.77-.129-3.53-.129-5.229a106.274,106.274,0,0,1,50.4-90.75,150.254,150.254,0,0,1-42.06-104.561c0-83.29,67.775-151.051,151.081-151.051A150.842,150.842,0,0,1,949.24,217.9l.135.406-.4.16c-10.286,4.165-19.753,6.165-28.807,6.068a103.169,103.169,0,0,0,31.749,3.839l.369-.012.089.358a151.632,151.632,0,0,1,4.5,36.719q0,.67-.006,1.339A68.5,68.5,0,0,0,979.5,317.845,106.866,106.866,0,0,1,974.513,480.2l-.219.176-.256-.116c-15.8-7.17-26.806-15.173-34.3-25A104.788,104.788,0,0,0,961.5,488.521l.405.418-.5.294a106.967,106.967,0,0,1-105.466,1.255,107.271,107.271,0,0,1-102.685,77.137Z" transform="translate(-254.288 -114.382)"/>
    <path id="Path_74" data-name="Path 74" class="cls-3" d="M724.925,772.783a1.942,1.942,0,0,1-1.92-1.668c-.082-.58-8.164-58.861-.906-136.318,6.7-71.534,28.227-174.569,92.705-259.19a1.942,1.942,0,1,1,3.089,2.354c-63.922,83.89-85.273,186.168-91.928,257.2-7.216,77.007.8,134.834.884,135.409a1.944,1.944,0,0,1-1.925,2.216Z" transform="translate(-264.033 -149.296)"/>
    <path id="Path_75" data-name="Path 75" class="cls-3" d="M762.752,497.455a1.942,1.942,0,0,1-1.143-3.513c.234-.17,23.822-17.166,59.086-30.078,32.6-11.935,82.17-22.754,133.2-6.512a1.942,1.942,0,1,1-1.178,3.7c-49.987-15.908-98.66-5.268-130.69,6.459-34.761,12.727-57.908,29.405-58.138,29.572a1.934,1.934,0,0,1-1.14.371Z" transform="translate(-269.627 -159.253)"/>
    <path id="Path_76" data-name="Path 76" class="cls-3" d="M310.706,751.773l6.562,2.053,44.03-140.7a7.267,7.267,0,0,0-8.726,4.863Z" transform="translate(-209.292 -181.207)"/>
    <path id="Path_77" data-name="Path 77" class="cls-4" d="M473.322,548.12H444.295V462.8h29.027a20.97,20.97,0,0,1,20.946,20.946v43.427a20.969,20.969,0,0,1-20.946,20.946Z" transform="translate(-227.199 -161.087)"/>
    <path id="Path_78" data-name="Path 78" class="cls-3" d="M472.583,503.074a3.661,3.661,0,0,1-3.657-3.657V467.728h7.313v31.69a3.661,3.661,0,0,1-3.657,3.656Z" transform="translate(-230.501 -161.747)"/>
    <path id="Path_79" data-name="Path 79" class="cls-3" d="M479.3,550.19H458.061a4.622,4.622,0,0,1-4.616-4.617V532.867a4.622,4.622,0,0,1,4.616-4.616H479.3a4.622,4.622,0,0,1,4.616,4.616v12.706a4.622,4.622,0,0,1-4.617,4.617Z" transform="translate(-228.426 -169.86)"/>
    <path id="Path_80" data-name="Path 80" class="cls-4" d="M411.428,444.715a2.162,2.162,0,0,1-1.369-.488,2.239,2.239,0,0,1-.82-1.595,69.771,69.771,0,0,1,5.544-31.938c2.934-6.793,6.309-11.17,10.622-13.775,5.754-3.475,13.648-3.753,21.66-.762,4.578,1.709,7.88,3.944,10.094,6.83,2.954,3.852,3.881,8.793,4.442,13.559a121.533,121.533,0,0,1,.594,21.731,2.118,2.118,0,0,1-1.174,1.782,2.319,2.319,0,0,1-2.3-.151,4.761,4.761,0,0,0-.42-.246,5.106,5.106,0,0,0-4.692.059,10.482,10.482,0,0,0-1.494,1.072l-2.88,2.332a2.224,2.224,0,0,1-2.534.16,15.628,15.628,0,0,0-6.822-2.015,43.547,43.547,0,0,0-9.507.69l-18.616,2.729a2.252,2.252,0,0,1-.326.024Z" transform="translate(-222.482 -151.877)"/>
    <path id="Path_81" data-name="Path 81" class="cls-5" d="M213.053,690.8h-9.942l-4.73-38.348h14.674Z" transform="translate(-26.592 -87.459)"/>
    <path id="Path_82" data-name="Path 82" class="cls-4" d="M409.761,829.1h-7.055l-1.259-6.661-3.225,6.661H379.511a4.206,4.206,0,0,1-2.39-7.667l14.942-10.319v-6.734l15.716.938Z" transform="translate(-217.951 -206.874)"/>
    <path id="Path_83" data-name="Path 83" class="cls-5" d="M343.059,681.447l-9.165,3.853-19.224-33.517L328.2,646.1Z" transform="translate(-42.18 -86.607)"/>
    <path id="Path_84" data-name="Path 84" class="cls-4" d="M549.97,815.728l-6.5,2.735-3.742-5.652-.391,7.39-17.248,7.253a4.206,4.206,0,0,1-5.175-6.141l9.774-15.3-2.61-6.207,14.851-5.227Z" transform="translate(-236.844 -205.56)"/>
    <path id="Path_85" data-name="Path 85" class="cls-5" d="M205.419,395.039l-2.849,38.169-18.9,57-7.589-4.411,10.3-57.971,3.5-33.443Z" transform="translate(-23.604 -52.866)"/>
    <circle id="Ellipse_7" data-name="Ellipse 7" class="cls-5" cx="7.953" cy="7.953" r="7.953" transform="translate(147.711 429.752)"/>
    <path id="Path_86" data-name="Path 86" class="cls-4" d="M448.831,559.408v10.529s16.3,28.719,9.661,41.042l24.467,66.928s33.18,33.18,30.336,56.88l1.9,7.584-21.8,9.479-4.74-6.636L451.675,681.7l-31.284-57.827L414.7,692.127s3.792,53.088-6.636,58.776l-.948,8.532H384.991v-8.11s-8.207-28.862-3.467-50.665l-1.9-91.956s8.532-38.868,18.96-45.5l3.792-9.48Z" transform="translate(-218.531 -173.274)"/>
    <path id="Path_87" data-name="Path 87" class="cls-6" d="M468.066,472.9,447.4,463.229l-5.964-10.394-20.057,1.137-6.069,9.907L397.459,467.5l2.624,64.524a9.916,9.916,0,0,0-1.176,6.7c.626,4.044,3.807.863.626,4.044s-5.579,1.582-3.982,4.37-2.33,7.133-2.33,7.133,50.784,25.866,65.13-7.133c0,0,2.828-9.652-1.95-29.875S468.066,472.9,468.066,472.9Z" transform="translate(-220.353 -159.751)"/>
    <path id="Path_88" data-name="Path 88" class="cls-6" d="M401.919,473.875l-5.867-4.109s-8.115,3.331-8.389,10.071-4.938,26.91-4.938,26.91l18.525,9.959Z" transform="translate(-218.946 -162.02)"/>
    <path id="Path_89" data-name="Path 89" class="cls-5" d="M285.183,398.713l-2.848,38.168-31.62,47.459-7.588-4.411L266.146,431.5l3.5-33.443Z" transform="translate(-32.59 -53.358)"/>
    <path id="Path_90" data-name="Path 90" class="cls-6" d="M467.318,478.168l9.666-2.158s5.824,1.86,6.619,10.608,1.462,23.973,1.462,23.973l-20.284,14.917-5.036-21.394Z" transform="translate(-229.27 -162.857)"/>
    <circle id="Ellipse_8" data-name="Ellipse 8" class="cls-5" cx="7.953" cy="7.953" r="7.953" transform="translate(204.97 423.39)"/>
    <circle id="Ellipse_9" data-name="Ellipse 9" class="cls-7" cx="18.53" cy="18.53" r="18.53" transform="translate(190.713 252.617)"/>
    <path id="Path_91" data-name="Path 91" class="cls-4" d="M416.377,420.386h0q-3.541,0-7.09-.009a2.117,2.117,0,0,1-1.511-.644,2.048,2.048,0,0,1-.58-1.5,24.361,24.361,0,0,1,11.335-19.519h0a23.666,23.666,0,0,1,35.953,18.92,2.086,2.086,0,0,1-2,2.2c-8.2.347-17.3.515-29.5.547h-.006a2.08,2.08,0,0,1-1.934-1.3l-.2-.48a1.291,1.291,0,0,0-2.451.186,2.081,2.081,0,0,1-2.028,1.6Z" transform="translate(-222.226 -152.032)"/>
    <path id="Path_92" data-name="Path 92" class="cls-3" d="M464.212,523.937c-4.98-4.686-7.121-11.486-7.155-18.2-.039-7.669,2.737-14.953,6.327-21.622,2.171-4.033,4.645-7.892,7.121-11.742.833-1.3-1.231-2.493-2.06-1.2-8.375,13.027-17.6,28.457-12.2,44.466a24.278,24.278,0,0,0,6.278,9.989c1.118,1.052,2.808-.632,1.687-1.687Z" transform="translate(-228.586 -162.134)"/>
    <path id="Path_93" data-name="Path 93" class="cls-2" d="M303.473,696.431a22.86,22.86,0,0,0-12.652-.317c-.01.005-.017,0-.026.008a23.189,23.189,0,0,0-8.819,4.468c-.15.121-.293.245-.436.368a22.971,22.971,0,0,0-6.975,10.6l-17.7,56.574a22.979,22.979,0,0,0-.259,12.9l.209.714a23.258,23.258,0,0,0,4.076,7.719.135.135,0,0,1,.027.041,23,23,0,0,0,11.075,7.532l33.391,10.449,31.485-100.61Z" transform="translate(-201.933 -192.262)"/>
    <path id="Path_94" data-name="Path 94" class="cls-3" d="M364.973,613.954l-43,137.418a3.438,3.438,0,0,0,6.561,2.053l40.839-130.5a7.267,7.267,0,0,0-4.4-8.97Z" transform="translate(-210.781 -181.348)"/>
    <circle id="Ellipse_10" data-name="Ellipse 10" class="cls-3" cx="6.157" cy="6.157" r="6.157" transform="translate(94.402 610.452)"/>
    <circle id="Ellipse_11" data-name="Ellipse 11" class="cls-3" cx="6.157" cy="6.157" r="6.157" transform="translate(54.304 597.904)"/>
    <path id="Path_95" data-name="Path 95" class="cls-3" d="M290.945,696.228c-6.377,19.993-23.081,72.27-29.908,93.394a.132.132,0,0,0-.027-.041,23.258,23.258,0,0,1-4.076-7.719l-.209-.714c7.32-22.956,19.579-61.671,24.939-80.077.143-.123.286-.247.436-.368a23.19,23.19,0,0,1,8.819-4.469C290.928,696.23,290.935,696.232,290.945,696.228Z" transform="translate(-202.056 -192.377)"/>
    <path id="Path_96" data-name="Path 96" class="cls-8" d="M785.578,833.677h-590.9a1.087,1.087,0,0,1,0-2.174h590.9a1.087,1.087,0,0,1,0,2.174Z" transform="translate(-193.594 -210.51)"/>
    <path id="Path_97" data-name="Path 97" class="cls-1" d="M505.36,172.332c-9.383-9.332-18.372-22.023-31.6-22.018-20.336.008-29.071,29.453-48.972,33.637-8.888,1.869-17.957-1.851-27.038-2.012s-19.943,6.433-18.024,15.31l173.126-2.61A79.634,79.634,0,0,1,505.36,172.332Z" transform="translate(-218.514 -119.199)"/>
    <path id="Path_98" data-name="Path 98" class="cls-1" d="M955.517,130.776c-20.336.008-29.071,29.453-48.972,33.637-8.888,1.869-17.957-1.851-27.038-2.012s-19.943,6.433-18.024,15.31l173.126-2.61a79.634,79.634,0,0,1-47.488-22.307C977.738,143.461,968.75,130.77,955.517,130.776Z" transform="translate(-283.092 -116.58)"/>
  </g>
</svg>
