<svg xmlns="http://www.w3.org/2000/svg" width="251.701" height="311.635" viewBox="0 0 251.701 311.635">
  <defs>
    <style>
      .cls-1 {
        fill: #a0616a;
      }

      .cls-2 {
        fill: #3f3d56;
      }

      .cls-3 {
        fill: #0d6efd;
      }

      .cls-4 {
        fill: #2f2e41;
      }

      .cls-5 {
        opacity: 0.1;
      }

      .cls-6 {
        fill: #ccc;
      }
    </style>
  </defs>
  <g id="Group_8" data-name="Group 8" transform="translate(-606.238 -279.577)">
    <path id="Path_13" data-name="Path 13" class="cls-1" d="M698.713,437.948a8.767,8.767,0,0,0,6.6-16.11l-18.609-21.111-15.739,3.4,22.137,21.682a8.719,8.719,0,0,0,5.606,12.138Z" transform="translate(148.112 5.187)"/>
    <path id="Path_14" data-name="Path 14" class="cls-2" d="M440.016,124.79,486.4,183.007l14.137-6.491-54.513-84.87Z" transform="translate(345.587 242.765)"/>
    <circle id="Ellipse_1" data-name="Ellipse 1" class="cls-2" cx="5.087" cy="5.087" r="5.087" transform="translate(671.212 580.923)"/>
    <path id="Path_15" data-name="Path 15" class="cls-2" d="M435.567,500.245s12.024-36.533,12.948-39.077,10.636,1.619,13.18,2.312a2.582,2.582,0,0,1,1.85,3.237L450.6,504.176l3.931,1.85,12.024-37.689c6.937-7.168,1.85-7.63,1.85-7.63s-14.8-5.087-20.348-5.549-3.468,6.243-3.468,6.243l-13.411,35.608Z" transform="translate(244.432 -16.667)"/>
    <path id="Path_16" data-name="Path 16" class="cls-3" d="M421.006,531.63l0,0a14.42,14.42,0,0,0-6.934-5.316q-.149-.056-.347-.125c-6.37-2.227-50.753-14.211-50.753-14.211s-8.786-3.237-12.717,5.549-27.284,81.622-27.284,81.622,45.676,24.426,58.992,27.086a8.044,8.044,0,0,0,2.513.2,35.433,35.433,0,0,0,6.652-1.589,27.84,27.84,0,0,0,6.759-3.267l25.9-77.46S427.48,535.561,421.006,531.63Z" transform="translate(287.895 -39.265)"/>
    <path id="Path_17" data-name="Path 17" class="cls-2" d="M460.609,541.561l0,0a14.42,14.42,0,0,0-6.934-5.316q-.149-.056-.347-.125c2.095,3.672,2.89,9.374,2.89,9.374s-25.435,75.61-27.747,82.778c-1.762,5.464-5.316,7.32-6.907,7.894a8.044,8.044,0,0,0,2.513.2,35.452,35.452,0,0,0,6.652-1.588,14.8,14.8,0,0,0,1.672-2.342s25.9-77.46,28.209-81.159S460.609,541.561,460.609,541.561Z" transform="translate(248.292 -49.196)"/>
    <circle id="Ellipse_2" data-name="Ellipse 2" class="cls-2" cx="5.087" cy="5.087" r="5.087" transform="translate(655.605 581.039)"/>
    <circle id="Ellipse_3" data-name="Ellipse 3" class="cls-2" cx="5.087" cy="5.087" r="5.087" transform="translate(606.238 559.651)"/>
    <path id="Path_18" data-name="Path 18" class="cls-1" d="M465.936,445.136a8.767,8.767,0,0,1-7.175-15.864l17.844-21.761,15.85,2.838-21.35,22.457a8.719,8.719,0,0,1-5.17,12.33Z" transform="translate(235.053 2.462)"/>
    <path id="Path_19" data-name="Path 19" class="cls-1" d="M501.866,440.73l11.054-.174-1.33,37.674h-9.722Z" transform="translate(320.744 102.618)"/>
    <path id="Path_20" data-name="Path 20" class="cls-4" d="M672.724,687.794h19.148a12.2,12.2,0,0,1,12.2,12.2v.4H672.725Z" transform="translate(147.407 -110.12)"/>
    <path id="Path_21" data-name="Path 21" class="cls-1" d="M365.948,424.146l12.075,7.752L353.87,460.956l-8.182-5.253Z" transform="translate(383.476 109.209)"/>
    <path id="Path_22" data-name="Path 22" class="cls-4" d="M515.5,659.762l16.112,10.344h0a12.2,12.2,0,0,1,3.675,16.86l-.214.334-26.38-16.937Z" transform="translate(213.295 -98.861)"/>
    <path id="Path_23" data-name="Path 23" class="cls-2" d="M541.728,360.8s26.829-89.107,35.451-90.311,22.514,22.864,22.514,22.864c18.011,22.981,36.584,97.42,36.584,97.42s-30.961,1.937-53.594,13.979-49.343-.61-49.343-.61Z" transform="translate(203.394 57.52)"/>
    <path id="Path_24" data-name="Path 24" class="cls-5" d="M541.728,360.8s26.829-89.107,35.451-90.311,18.986,23.108,18.986,23.108c8.975,37.1,40.112,97.176,40.112,97.176s-30.961,1.937-53.594,13.979-49.343-.61-49.343-.61Z" transform="translate(203.394 57.519)"/>
    <path id="Path_25" data-name="Path 25" class="cls-4" d="M387.936,183.147v44.776l-5.269,64.861L356.34,341.846l12.565,8.975,35.9-46.669,14.2-46.34,22.3,102.582,16.753-1.2L446.42,216.969l-22.079-40.034Z" transform="translate(379.198 208.507)"/>
    <path id="Path_26" data-name="Path 26" class="cls-6" d="M602.036,290.855c8.377,8.377.6,17.351.6,17.351l9.573,21.54-37.695,10.172L561.34,281.056l8.975-9.573c17.95-.6,17.959-.97,17.959-.97C591.42,273.59,602.036,290.855,602.036,290.855Z" transform="translate(192.147 57.491)"/>
    <path id="Path_27" data-name="Path 27" class="cls-2" d="M540.585,275.984h0a16.082,16.082,0,0,0-4.653,20.54c4.319,8.244,8.964,21.013,6.568,35.032-4.334,25.37-18.229,44.646-25.969,50.836-2.695,2.155-2.789,5.293-2.393,7.546,1.1,6.295,7.208,13.438,11.43,14.87a2.728,2.728,0,0,0,.881.139c6.858,0,23.727-21.84,43.112-64.506,12.073-26.572,3.311-47.878-6.166-61.072a16.085,16.085,0,0,0-22.6-3.538Z" transform="translate(211.176 56.617)"/>
    <path id="Path_28" data-name="Path 28" class="cls-2" d="M367.154,117.248l-54.438,71.428-14.36-5.983,51.456-86.757Z" transform="translate(402.488 241.043)"/>
    <path id="Path_29" data-name="Path 29" class="cls-4" d="M588.241,230.248H550.8a2.908,2.908,0,0,1-2.905-2.905V211.2h0a21.626,21.626,0,1,1,43.253,0v16.139A2.908,2.908,0,0,1,588.241,230.248Z" transform="translate(197.548 90)"/>
    <circle id="Ellipse_4" data-name="Ellipse 4" class="cls-1" cx="15.856" cy="15.856" r="15.856" transform="translate(749.994 310.325) rotate(-61.337)"/>
    <path id="Path_30" data-name="Path 30" class="cls-4" d="M603.6,216.719H580.7l-.235-3.287-1.174,3.287h-3.525L575.3,210.2l-2.327,6.515h-6.822V216.4a17.127,17.127,0,0,1,17.107-17.107h3.228A17.127,17.127,0,0,1,603.6,216.4Z" transform="translate(190.213 86.099)"/>
    <path id="Path_31" data-name="Path 31" class="cls-4" d="M578.556,241.97a2.964,2.964,0,0,1-.514-.045l-16.765-2.958V211.259h18.455l-.457.533c-6.357,7.414-1.568,19.436,1.853,25.942a2.862,2.862,0,0,1-.227,3.039A2.894,2.894,0,0,1,578.556,241.97Z" transform="translate(192.173 81.291)"/>
  </g>
</svg>
