<svg xmlns="http://www.w3.org/2000/svg" width="1559.112" height="360" viewBox="0 0 1559.112 360">
  <g id="Group_522" data-name="Group 522" transform="translate(-6484.888 -1306)">
    <g id="Icon" transform="translate(7338.194 1555.343)">
      <circle id="Oval" cx="42" cy="42" r="42" transform="translate(-0.195 -0.343)" fill="#eaeffd"/>
      <g id="_4._Icons_Love" data-name="4. Icons / Love" transform="translate(27.672 27.523)">
        <path id="_Icon_Color" data-name="🔹 Icon Color" d="M14.331,28.662A14.331,14.331,0,1,1,28.662,14.331,14.347,14.347,0,0,1,14.331,28.662ZM19.5,16.854c-2.2,0-6.306,1.048-6.306,3.052v5.834a9.862,9.862,0,0,0,1.132.057,11.424,11.424,0,0,0,10.677-7.3A10.268,10.268,0,0,0,19.5,16.854Zm-8.6-1.1c-2.137,0-5.886.842-7.367,2.422a11.519,11.519,0,0,0,7.367,7.108V19.905c0-1.093.472-2.647,2.723-3.84A14.618,14.618,0,0,0,10.906,15.75Zm8.6-6.664a2.759,2.759,0,0,0-1.975.82,2.711,2.711,0,0,0-.79,1.947A2.766,2.766,0,1,0,19.5,9.085Zm-8.6-2.264A3.382,3.382,0,1,0,14.288,10.2,3.386,3.386,0,0,0,10.906,6.822Z" fill="#3167eb"/>
      </g>
    </g>
    <path id="why_us_" data-name="why
us?" d="M14.7-106.3H42.15a1,1,0,0,1,1,.979L44.7-33.365l30.43-72.323a1,1,0,0,1,.922-.612H104.4a1,1,0,0,1,1,.941l4.222,71.5,26.993-71.794a1,1,0,0,1,.936-.648h27.6a1,1,0,0,1,.837.453,1,1,0,0,1,.079.948L120.016.4a1,1,0,0,1-.916.6H88.05a1,1,0,0,1-1-.933l-4.37-64.992L54.77.393A1,1,0,0,1,53.85,1H22.8a1,1,0,0,1-1-.923l-8.1-105.3a1,1,0,0,1,.263-.756A1,1,0,0,1,14.7-106.3Zm26.471,2H15.78L23.726-1H53.19L82.48-69.543a1,1,0,0,1,1.087-.593,1,1,0,0,1,.83.919L88.985-1h29.461l45.175-103.3H138.242L109.836-28.748a1,1,0,0,1-1.086.637,1,1,0,0,1-.848-.93L103.457-104.3H76.714L44.722-28.262a1,1,0,0,1-1.109.594,1,1,0,0,1-.812-.961Zm136.879-2H203.7a1,1,0,0,1,.766.358,1,1,0,0,1,.218.817L197.543-64.9h37.869l7.2-40.575a1,1,0,0,1,.985-.825h25.65a1,1,0,0,1,.766.357,1,1,0,0,1,.219.817L251.635.174A1,1,0,0,1,250.65,1H225a1,1,0,0,1-.766-.357,1,1,0,0,1-.219-.816l7.444-42.477H193.59L186.085.173A1,1,0,0,1,185.1,1H159.45a1,1,0,0,1-.766-.357,1,1,0,0,1-.219-.817l18.6-105.3A1,1,0,0,1,178.05-106.3Zm24.457,2H178.889L160.642-1H184.26l7.5-42.823a1,1,0,0,1,.985-.827h39.9a1,1,0,0,1,.766.357,1,1,0,0,1,.219.816L226.191-1h23.621l18.247-103.3h-23.62l-7.2,40.575a1,1,0,0,1-.985.825h-39.9a1,1,0,0,1-.766-.358,1,1,0,0,1-.218-.817Zm76.943-2h29.1a1,1,0,0,1,.961.724L321.5-63.757l26.857-42.081a1,1,0,0,1,.843-.462H378a1,1,0,0,1,.886.536,1,1,0,0,1-.063,1.033L330.2-34.409,323.934.178A1,1,0,0,1,322.95,1H297.3a1,1,0,0,1-.767-.359,1,1,0,0,1-.217-.819l6.254-34.544L278.5-104.976a1,1,0,0,1,.132-.905A1,1,0,0,1,279.45-106.3Zm28.346,2H280.85l23.7,69.176a1,1,0,0,1,.038.5L298.5-1h23.617l6.151-33.978a1,1,0,0,1,.161-.391L376.093-104.3H349.748L321.993-60.812a1,1,0,0,1-.987.452,1,1,0,0,1-.817-.714ZM251.25,37.85A43.1,43.1,0,0,1,266.3,40.291a25.309,25.309,0,0,1,10.722,7.3A23.124,23.124,0,0,1,281.91,57.76a35.2,35.2,0,0,1,.025,13.36v.005A37.571,37.571,0,0,1,277.016,84.3a34.3,34.3,0,0,1-8.9,9.651c-6.8,5.02-15.566,7.773-25.377,7.984l-2.519,10.495a1,1,0,0,1-.972.767h-22.5a1,1,0,0,1-.99-1.144l4.05-27.9a1,1,0,0,1,.99-.856h9c7.845,0,13.354-.813,17.336-2.56a12.6,12.6,0,0,0,7.927-10.1c.478-3.08-.039-5.606-1.5-7.307-1.392-1.625-3.645-2.484-6.517-2.484-6.591,0-11.214,3.952-12.365,10.571a1,1,0,0,1-.985.829H209.55a1,1,0,0,1-.988-1.156,38.825,38.825,0,0,1,4.48-12.99,37.427,37.427,0,0,1,8.846-10.575C229.56,41.2,239.713,37.85,251.25,37.85Zm28.715,32.928c1.555-9.007.009-16.578-4.469-21.9-4.975-5.908-13.36-9.031-24.246-9.031-21.257,0-37.027,11.89-40.512,30.4h22.14a14.7,14.7,0,0,1,4.532-8.04,14.35,14.35,0,0,1,9.64-3.36c3.474,0,6.252,1.1,8.036,3.183,1.849,2.159,2.524,5.244,1.952,8.921v.008a15.13,15.13,0,0,1-3.088,7.2,15.736,15.736,0,0,1-6.009,4.413C243.7,84.433,237.931,85.3,229.8,85.3h-8.135l-3.76,25.9h20.556l2.516-10.483a1,1,0,0,1,.965-.767C262.214,99.8,276.783,88.617,279.965,70.778ZM158.25,42.2c13.506,0,24.6,4.043,31.247,11.384a25.255,25.255,0,0,1,5.421,9.45A29.381,29.381,0,0,1,196,74.8a1,1,0,0,1-1,.9H167.7a1,1,0,0,1-.991-1.135,8.687,8.687,0,0,0-1.771-7.1c-1.721-1.971-4.5-3.013-8.038-3.013-6.773,0-11.15,3.435-11.15,8.75,0,6.152,7.736,9.688,16.693,13.783,6.375,2.914,13.6,6.218,19.147,11.052,6.467,5.637,9.61,12.429,9.61,20.765a30.027,30.027,0,0,1-11.339,23.876,39.512,39.512,0,0,1-13.22,6.9,58.383,58.383,0,0,1-17.391,2.469c-14.588,0-26.34-4.186-33.091-11.786a24.791,24.791,0,0,1-5.31-9.613,30.794,30.794,0,0,1-.842-12.269A1,1,0,0,1,111,117.5h26.7a1,1,0,0,1,1,1.081c-.272,3.332.519,6.107,2.287,8.025,1.926,2.089,5.044,3.193,9.017,3.193,7.372,0,11.6-3.189,11.6-8.75,0-2.94-1.527-5.38-4.805-7.679-3.113-2.183-7.463-4.01-12.068-5.944-6.276-2.636-13.39-5.624-18.852-10.2A25.394,25.394,0,0,1,116.3,76.96a33.752,33.752,0,0,1,2.218-12.85,29.938,29.938,0,0,1,6.606-10.143,37.031,37.031,0,0,1,14.233-8.759A56.671,56.671,0,0,1,158.25,42.2Zm35.832,31.5c.525-7.321-1.564-13.8-6.068-18.774-6.26-6.917-16.83-10.726-29.764-10.726-13.34,0-24.6,3.967-31.7,11.171-5.516,5.594-8.368,13.051-8.248,21.565.166,17.293,14.529,23.325,27.2,28.647,4.707,1.977,9.153,3.844,12.442,6.15a15,15,0,0,1,4.08,4.013,10.115,10.115,0,0,1-2.317,13.4C157.353,130.883,154,131.8,150,131.8a17.685,17.685,0,0,1-6.113-.983,11.069,11.069,0,0,1-4.375-2.855,11.789,11.789,0,0,1-2.865-8.462H111.9c-.734,7.771,1.2,14.307,5.756,19.436,6.366,7.167,17.586,11.114,31.6,11.114,23.9,0,39.95-12.558,39.95-31.25,0-17.386-14.657-24.086-27.589-30-4.655-2.128-9.051-4.138-12.291-6.49a15.671,15.671,0,0,1-4.012-4A9.194,9.194,0,0,1,143.75,73.2a10.243,10.243,0,0,1,.985-4.489,9.722,9.722,0,0,1,2.77-3.421,14.983,14.983,0,0,1,9.395-2.84c4.133,0,7.433,1.279,9.545,3.7A10.259,10.259,0,0,1,168.8,73.7ZM19.8,43.7H45.45a1,1,0,0,1,.985,1.174l-11.1,62.85c-1.139,6.3-.393,11.076,2.216,14.2,2.371,2.838,6.29,4.277,11.649,4.277,11.537,0,19.017-6.682,21.064-18.816v-.008l11.1-62.85a1,1,0,0,1,.985-.826H108a1,1,0,0,1,.985,1.174l-11.1,62.85a58.894,58.894,0,0,1-7.013,19.6,48.249,48.249,0,0,1-12.148,13.853,50.6,50.6,0,0,1-15.865,8.19A60.631,60.631,0,0,1,44.7,152.05a48.568,48.568,0,0,1-17.528-2.989,31.385,31.385,0,0,1-13-9.078A30.842,30.842,0,0,1,7.7,126.177a50.006,50.006,0,0,1,.164-18.8l10.95-62.848A1,1,0,0,1,19.8,43.7Zm24.458,2H20.641L9.835,107.722v.006c-2.325,12.887-.3,23.6,5.868,30.973,6.205,7.425,16.233,11.35,29,11.35,26.914,0,46.539-16.352,51.215-42.675L106.808,45.7H83.189L72.235,107.721a30.5,30.5,0,0,1-2.714,8.6,21.721,21.721,0,0,1-4.859,6.466,20.2,20.2,0,0,1-6.855,4.037A25.911,25.911,0,0,1,49.2,128.2c-5.979,0-10.415-1.68-13.184-4.995a13.84,13.84,0,0,1-2.933-6.791,27.1,27.1,0,0,1,.283-9.042ZM226.35,122.3a16.585,16.585,0,0,1,6.408,1.19,12.022,12.022,0,0,1,4.624,3.334,12.965,12.965,0,0,1,2.555,10.743v.006a17.258,17.258,0,0,1-6.263,10.374,19,19,0,0,1-5.588,3.115A19.93,19.93,0,0,1,221.4,152.2c-4.824,0-8.873-1.659-11.4-4.672a12.371,12.371,0,0,1-2.485-10.3,17.48,17.48,0,0,1,6.3-10.637,18.962,18.962,0,0,1,5.682-3.15A20.7,20.7,0,0,1,226.35,122.3Zm11.615,14.928a11,11,0,0,0-2.112-9.114c-2.077-2.46-5.452-3.814-9.5-3.814-8.466,0-15.559,5.58-16.864,13.267v.006a10.409,10.409,0,0,0,2.047,8.669c2.141,2.552,5.646,3.958,9.868,3.958C229.671,150.2,236.637,144.745,237.965,137.228Z" transform="translate(6478 1464)" fill="#0d6efd" opacity="0.98"/>
    <rect id="Rectangle_472" data-name="Rectangle 472" width="1088" height="360" rx="12" transform="translate(6956 1306)" fill="#f5f5f5"/>
    <rect id="Rectangle_473" data-name="Rectangle 473" width="289" height="245" rx="16" transform="translate(7016 1364)" fill="#fff"/>
    <circle id="Oval-2" data-name="Oval" cx="50.5" cy="50.5" r="50.5" transform="translate(7110 1414)" fill="#feeaea"/>
    <path id="_Icon_Color-2" data-name="🔹 Icon Color" d="M18,36A18,18,0,1,1,36,18,18.02,18.02,0,0,1,18,36ZM12.21,21.412c.125,2.2,1.688,3.822,4.18,4.346v2.467H19.8V25.783c2.523-.478,3.976-1.95,3.987-4.039,0-3.192-2.7-4.317-5.342-5-2.456-.632-3.413-1.317-3.413-2.441,0-1.274,1.2-2.1,3.068-2.1,1.836,0,2.764.782,2.837,2.391h2.5A4.543,4.543,0,0,0,19.8,10.267V7.775H16.39v2.467c-1.922.413-3.976,1.707-3.976,4.1,0,2.319,1.7,3.809,5.343,4.69,3.006.714,3.412,1.784,3.412,2.736,0,.983-.806,2.032-3.067,2.032-2.61,0-3.283-1.3-3.388-2.391Z" transform="translate(7143 1447)" fill="#fa3434"/>
    <text id="Reasonable_cost" data-name="Reasonable cost" transform="translate(7161 1565)" fill="#272626" font-size="20" font-family="Poppins-Medium, Poppins" font-weight="500"><tspan x="-85.62" y="0">Reasonable Cost</tspan></text>
    <rect id="Rectangle_474" data-name="Rectangle 474" width="289" height="245" rx="16" transform="translate(7358 1364)" fill="#fff"/>
    <text id="_5-star_Quality" data-name="5-star Quality" transform="translate(7503 1565)" fill="#272626" font-size="20" font-family="Poppins-Medium, Poppins" font-weight="500"><tspan x="-71.18" y="0">5-Star Quality</tspan></text>
    <circle id="Oval-3" data-name="Oval" cx="50" cy="50" r="50" transform="translate(7453 1415)" fill="#fff3e7"/>
    <path id="_Icon_Color-3" data-name="🔹 Icon Color" d="M17.982,36A18,18,0,1,1,36,18,18.011,18.011,0,0,1,17.982,36ZM18,24.21h0L25.614,28.8,23.6,20.124l6.713-5.814-8.857-.755L18,5.4l-3.455,8.173-8.857.755L12.4,20.142,10.386,28.8,18,24.21Z" transform="translate(7485 1447)" fill="#ff9017"/>
    <rect id="Rectangle_475" data-name="Rectangle 475" width="289" height="245" rx="16" transform="translate(7700 1364)" fill="#fff"/>
    <text id="Ensured_security" data-name="Ensured security" transform="translate(7845 1565)" fill="#272626" font-size="20" font-family="Poppins-Medium, Poppins" font-weight="500"><tspan x="-83.67" y="0">Ensured Security</tspan></text>
    <circle id="Oval-4" data-name="Oval" cx="50" cy="50" r="50" transform="translate(7795 1415)" fill="#e5f7e7"/>
    <path id="Path_244" data-name="Path 244" d="M0,0H36V36H0Z" transform="translate(7827 1447)" fill="none"/>
    <path id="Path_245" data-name="Path 245" d="M4.242,3.782,17.276,1,30.31,3.782a1.539,1.539,0,0,1,1.242,1.487V20.484a9.05,9.05,0,0,1-4.238,7.6L17.276,34.517,7.238,28.09A9.051,9.051,0,0,1,3,20.486V5.269A1.538,1.538,0,0,1,4.242,3.782ZM17.276,16.235a3.89,3.89,0,0,0,3.966-3.809,3.969,3.969,0,0,0-7.931,0A3.89,3.89,0,0,0,17.276,16.235Zm-7.1,7.618h14.19a7.04,7.04,0,0,0-7.1-6.106,7.04,7.04,0,0,0-7.1,6.106Z" transform="translate(7827.724 1447)" fill="#00b517"/>
  </g>
</svg>
